<svg xmlns="http://www.w3.org/2000/svg" width="200" height="80" viewBox="0 0 200 80">
  <path
    d="M12,55 C18,40 26,30 34,38 C40,44 38,58 44,52 C50,46 52,32 60,36 C66,39 64,54 70,50 C76,46 78,34 86,38 C92,41 90,56 96,52 C102,48 106,36 114,40 C120,44 118,58 124,52 C130,46 134,32 142,38 C148,43 144,58 150,54 C156,50 158,38 166,42 C172,45 170,58 178,54 C183,51 186,44 190,40"
    fill="none"
    stroke="#1e293b"
    stroke-width="2.2"
    stroke-linecap="round"
    stroke-linejoin="round"
  />
</svg>
